0
SECTION
2
HEADER
9
$INSUNITS
70
1
9
$ACADVER
1
AC1014
9
$HANDSEED
5
FFFF
0
ENDSEC
0
SECTION
2
TABLES
0
TABLE
2
VPORT
5
8
100
AcDbSymbolTable
0
ENDTAB
0
TABLE
2
LTYPE
5
5
100
AcDbSymbolTable
0
LTYPE
5
14
100
AcDbSymbolTableRecord
100
AcDbLinetypeTableRecord
2
BYBLOCK
70
0
0
LTYPE
5
15
100
AcDbSymbolTableRecord
100
AcDbLinetypeTableRecord
2
BYLAYER
70
0
0
ENDTAB
0
TABLE
2
LAYER
5
2
100
AcDbSymbolTable
70
2
0
LAYER
5
50
100
AcDbSymbolTableRecord
100
AcDbLayerTableRecord
2
0
70
0
6
CONTINUOUS
0
ENDTAB
0
TABLE
2
STYLE
5
3
100
AcDbSymbolTable
70
1
0
STYLE
5
11
100
AcDbSymbolTableRecord
100
AcDbTextStyleTableRecord
2
STANDARD
70
0
0
ENDTAB
0
TABLE
2
VIEW
5
6
100
AcDbSymbolTable
70
0
0
ENDTAB
0
TABLE
2
UCS
5
7
100
AcDbSymbolTable
70
0
0
ENDTAB
0
TABLE
2
APPID
5
9
100
AcDbSymbolTable
70
2
0
APPID
5
12
100
AcDbSymbolTableRecord
100
AcDbRegAppTableRecord
2
ACAD
70
0
0
ENDTAB
0
TABLE
2
DIMSTYLE
5
A
100
AcDbSymbolTable
70
1
0
ENDTAB
0
TABLE
2
BLOCK_RECORD
5
1
100
AcDbSymbolTable
70
1
0
BLOCK_RECORD
5
1F
100
AcDbSymbolTableRecord
100
AcDbBlockTableRecord
2
*MODEL_SPACE
0
BLOCK_RECORD
5
1B
100
AcDbSymbolTableRecord
100
AcDbBlockTableRecord
2
*PAPER_SPACE
0
ENDTAB
0
ENDSEC
0
SECTION
2
BLOCKS
0
BLOCK
5
20
100
AcDbEntity
100
AcDbBlockBegin
2
*MODEL_SPACE
0
ENDBLK
5
21
100
AcDbEntity
100
AcDbBlockEnd
0
BLOCK
5
1C
100
AcDbEntity
100
AcDbBlockBegin
2
*PAPER_SPACE
0
ENDBLK
5
1D
100
AcDbEntity
100
AcDbBlockEnd
0
ENDSEC
0
SECTION
2
ENTITIES
0
LWPOLYLINE
5
100
100
AcDbEntity
8
0
100
AcDbPolyline
90
4
70
1
43
0.0
10
0
20
4.4393306908460541
10
0
20
1.139330690846055
10
-2.2374999999999994
20
1.139330690846055
10
-2.2374999999999994
20
4.4393306908460541
0
LWPOLYLINE
5
101
100
AcDbEntity
8
0
100
AcDbPolyline
90
4
70
1
43
0.0
10
-2.2374999999999994
20
1.139330690846055
10
0
20
1.139330690846055
10
0
20
4.4393306908460541
10
-2.2374999999999994
20
4.4393306908460541
0
LINE
5
102
100
AcDbEntity
8
0
100
AcDbLine
10
-0.4375
20
1.514330690846055
30
0
11
-1.7999999999999998
21
1.514330690846055
31
0
0
LINE
5
103
100
AcDbEntity
8
0
100
AcDbLine
10
-1.7999999999999998
20
4.0643306908460541
30
0
11
-0.4375
21
4.0643306908460541
31
0
0
CIRCLE
5
104
100
AcDbEntity
8
0
100
AcDbCircle
10
-0.375
20
4.0643306908460541
30
0
40
0.062500000000000014
0
CIRCLE
5
105
100
AcDbEntity
8
0
100
AcDbCircle
10
-1.8624999999999996
20
4.0643306908460541
30
0
40
0.062499999999999938
0
CIRCLE
5
106
100
AcDbEntity
8
0
100
AcDbCircle
10
-1.8624999999999996
20
1.514330690846055
30
0
40
0.062499999999999931
0
CIRCLE
5
107
100
AcDbEntity
8
0
100
AcDbCircle
10
-0.375
20
1.514330690846055
30
0
40
0.062499999999999972
0
LINE
5
108
100
AcDbEntity
8
0
100
AcDbLine
10
-0.375
20
1.576830690846055
30
0
11
-0.375
21
2.7268306908460547
31
0
0
CIRCLE
5
109
100
AcDbEntity
8
0
100
AcDbCircle
10
-0.375
20
2.7893306908460547
30
0
40
0.062499999999999972
0
CIRCLE
5
110
100
AcDbEntity
8
0
100
AcDbCircle
10
-1.8624999999999996
20
2.7893306908460542
30
0
40
0.062500000000000069
0
LINE
5
111
100
AcDbEntity
8
0
100
AcDbLine
10
-1.8624999999999996
20
1.576830690846055
30
0
11
-1.8624999999999996
21
2.7268306908460542
31
0
0
LINE
5
112
100
AcDbEntity
8
0
100
AcDbLine
10
-1.8624999999999996
20
2.8518306908460547
30
0
11
-1.8624999999999996
21
4.0018306908460541
31
0
0
LINE
5
113
100
AcDbEntity
8
0
100
AcDbLine
10
-0.375
20
4.0018306908460541
30
0
11
-0.375
21
2.8518306908460547
31
0
0
LINE
5
114
100
AcDbEntity
8
0
100
AcDbLine
10
-0.375
20
2.7268306908460547
30
0
11
-0.375
21
1.576830690846055
31
0
0
LWPOLYLINE
5
115
100
AcDbEntity
8
0
100
AcDbPolyline
90
4
70
1
43
0.0
10
-0.37499999999999983
20
3.7859017858780839
10
-2.2374999999999994
20
3.7859017858780839
10
-2.2374999999999994
20
3.0341845244138574
10
-0.375
20
3.0341845244138574
0
LWPOLYLINE
5
116
100
AcDbEntity
8
0
100
AcDbPolyline
90
4
70
1
43
0.0
10
-0.37499999999999983
20
2.5358551038926294
10
-2.2374999999999994
20
2.5358551038926294
10
-2.2374999999999994
20
1.7275049577322978
10
-0.375
20
1.7275049577322978
0
LINE
5
117
100
AcDbEntity
8
0
100
AcDbLine
10
-0.375
20
1.5893306908460547
30
0
11
-0.375
21
1.8656792246185412
31
0
0
ENDSEC
0
SECTION
2
OBJECTS
0
DICTIONARY
5
C
100
AcDbDictionary
3
ACAD_GROUP
350
D
3
ACAD_MLINESTYLE
350
17
0
DICTIONARY
5
D
100
AcDbDictionary
0
DICTIONARY
5
1A
330
C
100
AcDbDictionary
0
DICTIONARY
5
17
100
AcDbDictionary
0
ENDSEC
0
EOF
